<svg width="42" height="52" viewBox="0 0 42 52" fill="none" xmlns="http://www.w3.org/2000/svg">
<path d="M24.3517 38.5215C31.0902 31.7561 31.7051 22.3161 27.145 16.2119C24.4774 12.6405 21.0076 10.7095 16.4817 11.3318C12.5936 11.8649 9.85517 14.1665 7.92138 17.5023C7.12821 18.8705 6.55448 20.3279 6.20475 21.87C5.91445 23.142 6.3739 24.0572 7.39336 24.318C8.49512 24.5995 9.33629 24.0183 9.67688 22.7234C10.3009 20.3439 11.3135 18.191 13.2862 16.6215C16.6577 13.94 20.6259 14.2603 23.5517 17.4268C27.7781 22.0049 27.5998 30.2392 23.1837 34.6251C19.8395 37.9472 14.8794 37.5834 11.9993 33.8381C10.7009 32.1473 9.93746 30.2506 9.5123 28.1801C9.24943 26.8942 8.15454 26.2651 7.08478 26.7227C6.3419 27.0384 5.88017 27.6378 5.98303 28.4432C6.56591 32.9939 9.31801 38.0273 14.2691 39.8302C18.6509 41.4249 22.5071 40.3267 24.3563 38.5283L24.3517 38.5215Z" fill="#124FA6"/>
<path d="M29.7426 10.4488C22.4417 3.13431 11.0927 3.74519 4.87994 11.9337C-0.967133 19.6394 -1.39915 27.9331 2.72443 36.5655C2.97358 37.0894 3.28674 37.595 3.64103 38.0549C4.26049 38.8557 5.20681 39.0342 5.96798 38.5583C6.81372 38.0275 7.10402 37.1031 6.61943 36.1742C6.09598 35.1721 5.5131 34.2043 5.0788 33.1542C2.22155 26.2607 3.7919 17.7725 8.85723 12.7916C14.6449 7.09929 23.7035 7.88862 28.4899 14.4641C29.818 16.2876 30.8123 18.2529 31.5003 20.3899C31.9278 21.7146 32.7758 22.2728 33.8204 21.9525C34.8673 21.6322 35.3039 20.6598 34.9153 19.3511C33.9142 15.9673 32.2387 12.9678 29.7426 10.4511V10.4488Z" fill="#124FA6"/>
<path d="M34.3223 7.33478C25.5791 -1.40052 13.7318 -2.27222 4.82633 4.3925C4.27317 4.80662 3.76572 5.28937 3.29028 5.79043C2.55653 6.56146 2.53139 7.41944 3.15541 8.14471C3.77715 8.86541 4.66175 9.0164 5.51893 8.45357C6.2161 7.9937 6.82412 7.40113 7.51215 6.92524C14.5433 2.05653 22.9207 2.38142 29.4992 7.82439C34.6994 12.1257 37.1658 17.8112 37.6207 24.4439C37.7601 26.487 37.6458 28.5278 37.2435 30.5504C36.9578 31.9849 37.4995 32.8841 38.631 33.0831C39.6848 33.2684 40.5397 32.5866 40.7659 31.2459C42.366 21.8082 40.0093 13.5305 34.32 7.33478H34.3223Z" fill="#124FA6"/>
<path d="M29.7628 41.3334C33.9321 36.8605 35.8796 31.6601 35.827 25.6932C35.8156 24.3547 35.1184 23.5517 34.0144 23.5631C32.9058 23.5745 32.2292 24.3547 32.2429 25.7366C32.2795 29.7703 31.1777 33.4469 28.8828 36.7644C25.621 41.4798 20.3019 43.658 15.0903 42.4202C13.4171 42.0221 11.993 41.1001 10.521 40.2764C9.51293 39.7113 8.53232 39.8074 7.96316 40.5715C7.346 41.3998 7.51972 42.3767 8.42947 43.1775C8.56661 43.2988 8.70833 43.4131 8.85919 43.5138C11.241 45.1016 13.8331 46.1152 16.7041 46.3257C21.8837 46.7032 26.1833 44.7699 29.7605 41.3311L29.7628 41.3334Z" fill="#124FA6"/>
<path d="M13.6285 18.9945C11.4776 21.5867 10.9976 25.2062 11.9279 29.1094C12.2182 30.3243 12.7302 31.4454 13.4639 32.4727C15.8892 35.8679 20.1362 35.8565 22.5226 32.4246C25.805 27.6909 23.0049 25.8217 21.0139 27.8488C20.6482 28.2217 20.3785 28.6816 20.1979 29.1712C19.7979 30.2534 19.2836 31.3767 17.9487 31.3195C16.5818 31.2601 15.9715 29.9399 15.576 28.7411C14.8148 26.4303 14.8697 24.14 16.0286 21.9459C16.7623 20.5549 17.3681 20.2803 18.9247 20.5686C19.9579 20.7585 20.7876 20.2894 21.0756 19.3491C21.3454 18.4728 20.9568 17.6515 20.0516 17.1916C18.1567 16.2284 15.896 16.7111 13.6285 18.9922V18.9945Z" fill="#124FA6"/>
<path d="M38.2436 36.0689C37.2813 35.108 35.9281 35.3986 35.2332 36.705C34.0994 38.8442 32.7554 40.8164 31.0456 42.5438C28.7141 44.898 25.9963 46.5865 22.8213 47.5337C22.611 47.5955 22.4007 47.6527 22.195 47.7305C21.235 48.1012 20.7846 48.8676 20.9904 49.7736C21.2052 50.7208 22.0213 51.318 23.0407 51.1418C24.5585 50.8787 25.9917 50.3113 27.3586 49.6226C32.3188 47.1265 35.9212 43.2805 38.4104 38.35C38.8265 37.5241 38.8447 36.7439 38.2413 36.0667L38.2436 36.0689Z" fill="#124FA6"/>
</svg>
