<svg width="203" height="52" viewBox="0 0 203 52" fill="none" xmlns="http://www.w3.org/2000/svg">
<g clip-path="url(#clip0_3058_1777)">
<path d="M24.3517 38.5215C31.0902 31.7561 31.7051 22.3161 27.145 16.2119C24.4774 12.6405 21.0076 10.7095 16.4817 11.3318C12.5936 11.8649 9.85517 14.1665 7.92138 17.5023C7.12821 18.8705 6.55448 20.3279 6.20475 21.87C5.91445 23.142 6.3739 24.0572 7.39336 24.318C8.49512 24.5995 9.33629 24.0183 9.67688 22.7234C10.3009 20.3439 11.3135 18.191 13.2862 16.6215C16.6577 13.94 20.6259 14.2603 23.5517 17.4268C27.7781 22.0049 27.5998 30.2392 23.1837 34.6251C19.8395 37.9472 14.8794 37.5834 11.9993 33.8381C10.7009 32.1473 9.93746 30.2506 9.5123 28.1801C9.24943 26.8942 8.15454 26.2651 7.08478 26.7227C6.3419 27.0384 5.88017 27.6378 5.98303 28.4432C6.56591 32.9939 9.31801 38.0273 14.2691 39.8302C18.6509 41.4249 22.5071 40.3267 24.3563 38.5283L24.3517 38.5215Z" fill="#124FA6"/>
<path d="M29.7426 10.4488C22.4417 3.13431 11.0927 3.74519 4.87994 11.9337C-0.967133 19.6394 -1.39915 27.9331 2.72443 36.5655C2.97358 37.0894 3.28674 37.595 3.64103 38.0549C4.26049 38.8557 5.20681 39.0342 5.96798 38.5583C6.81372 38.0275 7.10402 37.1031 6.61943 36.1742C6.09598 35.1721 5.5131 34.2043 5.0788 33.1542C2.22155 26.2607 3.7919 17.7725 8.85723 12.7916C14.6449 7.09929 23.7035 7.88862 28.4899 14.4641C29.818 16.2876 30.8123 18.2529 31.5003 20.3899C31.9278 21.7146 32.7758 22.2728 33.8204 21.9525C34.8673 21.6322 35.3039 20.6598 34.9153 19.3511C33.9142 15.9673 32.2387 12.9678 29.7426 10.4511V10.4488Z" fill="#124FA6"/>
<path d="M34.3223 7.33478C25.5791 -1.40052 13.7318 -2.27222 4.82633 4.3925C4.27317 4.80662 3.76572 5.28937 3.29028 5.79043C2.55653 6.56146 2.53139 7.41944 3.15541 8.14471C3.77715 8.86541 4.66175 9.0164 5.51893 8.45357C6.2161 7.9937 6.82412 7.40113 7.51215 6.92524C14.5433 2.05653 22.9207 2.38142 29.4992 7.82439C34.6994 12.1257 37.1658 17.8112 37.6207 24.4439C37.7601 26.487 37.6458 28.5278 37.2435 30.5504C36.9578 31.9849 37.4995 32.8841 38.631 33.0831C39.6848 33.2684 40.5397 32.5866 40.7659 31.2459C42.366 21.8082 40.0093 13.5305 34.32 7.33478H34.3223Z" fill="#124FA6"/>
<path d="M29.7628 41.3334C33.9321 36.8605 35.8796 31.6601 35.827 25.6932C35.8156 24.3547 35.1184 23.5517 34.0144 23.5631C32.9058 23.5745 32.2292 24.3547 32.2429 25.7366C32.2795 29.7703 31.1777 33.4469 28.8828 36.7644C25.621 41.4798 20.3019 43.658 15.0903 42.4202C13.4171 42.0221 11.993 41.1001 10.521 40.2764C9.51293 39.7113 8.53232 39.8074 7.96316 40.5715C7.346 41.3998 7.51972 42.3767 8.42947 43.1775C8.56661 43.2988 8.70833 43.4131 8.85919 43.5138C11.241 45.1016 13.8331 46.1152 16.7041 46.3257C21.8837 46.7032 26.1833 44.7699 29.7605 41.3311L29.7628 41.3334Z" fill="#124FA6"/>
<path d="M13.6285 18.9945C11.4776 21.5867 10.9976 25.2062 11.9279 29.1094C12.2182 30.3243 12.7302 31.4454 13.4639 32.4727C15.8892 35.8679 20.1362 35.8565 22.5226 32.4246C25.805 27.6909 23.0049 25.8217 21.0139 27.8488C20.6482 28.2217 20.3785 28.6816 20.1979 29.1712C19.7979 30.2534 19.2836 31.3767 17.9487 31.3195C16.5818 31.2601 15.9715 29.9399 15.576 28.7411C14.8148 26.4303 14.8697 24.14 16.0286 21.9459C16.7623 20.5549 17.3681 20.2803 18.9247 20.5686C19.9579 20.7585 20.7876 20.2894 21.0756 19.3491C21.3454 18.4728 20.9568 17.6515 20.0516 17.1916C18.1567 16.2284 15.896 16.7111 13.6285 18.9922V18.9945Z" fill="#124FA6"/>
<path d="M38.2436 36.0689C37.2813 35.108 35.9281 35.3986 35.2332 36.705C34.0994 38.8442 32.7554 40.8164 31.0456 42.5438C28.7141 44.898 25.9963 46.5865 22.8213 47.5337C22.611 47.5955 22.4007 47.6527 22.195 47.7305C21.235 48.1012 20.7846 48.8676 20.9904 49.7736C21.2052 50.7208 22.0213 51.318 23.0407 51.1418C24.5585 50.8787 25.9917 50.3113 27.3586 49.6226C32.3188 47.1265 35.9212 43.2805 38.4104 38.35C38.8265 37.5241 38.8447 36.7439 38.2413 36.0667L38.2436 36.0689Z" fill="#124FA6"/>
<path d="M65.0348 23.8129V28.8528C63.2653 30.7018 60.8 31.6263 57.6389 31.6263C54.4778 31.6263 51.8435 30.5726 49.7361 28.4651C47.6485 26.3378 46.6048 23.5047 46.6048 19.9658C46.6048 16.4071 47.6684 13.5839 49.7957 11.4964C51.923 9.38896 54.5573 8.33525 57.6986 8.33525C60.8597 8.33525 63.3051 9.16032 65.0348 10.8105V15.6416H63.484L62.0227 10.8999C60.9293 9.92576 59.4879 9.43866 57.6986 9.43866C55.4321 9.43866 53.5931 10.3433 52.1815 12.1525C50.7699 13.9418 50.0641 16.4965 50.0641 19.8167C50.0641 23.117 50.7401 25.7116 52.092 27.6003C53.4638 29.489 55.2929 30.4334 57.5793 30.4334C59.4282 30.4334 60.9492 29.8767 62.142 28.7633L63.6331 23.8129H65.0348ZM68.3096 8.63347H77.3755V9.73688L74.7512 10.3631L80.4174 20.0851L85.6362 10.4526L83.0417 9.70706V8.63347H90.3481V9.70706L87.6939 10.5123L81.0734 21.4271V29.2107L84.1451 29.8966V31H75.0792V29.8966L77.9421 29.2405V21.8446L71.1725 10.4824L68.3096 9.73688V8.63347ZM93.9216 8.63347H101.854C103.882 8.63347 105.662 8.82234 107.192 9.20009C108.723 9.55795 110.085 10.1643 111.278 11.0192C112.491 11.8542 113.405 13.0173 114.022 14.5084C114.658 15.9995 114.976 17.8087 114.976 19.936C114.976 22.0633 114.658 23.8626 114.022 25.3338C113.385 26.805 112.441 27.9482 111.189 28.7633C109.936 29.5586 108.515 30.1352 106.924 30.493C105.353 30.831 103.485 31 101.317 31H93.9216V29.8966L96.874 29.2107V10.4526L93.9216 9.73688V8.63347ZM100.005 29.7475H101.467C104.906 29.7475 107.441 29.0119 109.071 27.5406C110.701 26.0694 111.517 23.5445 111.517 19.9658C111.517 16.3673 110.751 13.7927 109.22 12.2419C107.689 10.6713 105.274 9.88599 101.974 9.88599H100.005V29.7475ZM119.463 8.63347H135.895V13.9716H134.344L133.181 9.91582H125.546V18.8326H131.302L132.107 16.2381H133.211V22.4113H132.107L131.302 20.1448H125.546V29.7177H133.718L134.881 25.6917H136.461V31H119.463V29.8966L122.415 29.2107V10.4526L119.463 9.73688V8.63347ZM156.239 8.63347H163.575V9.73688L160.653 10.4824V31H158.565L144.608 10.5421V29.2405L147.531 29.8966V31H140.344V29.8966L143.117 29.2405V10.5123L140.344 9.73688V8.63347H146.994L159.162 26.2881V10.5123L156.239 9.73688V8.63347ZM172.432 31V29.8966L175.325 29.2107V9.91582H169.867L168.704 14.2698H167.153V8.63347H186.717V14.2698H185.166L184.003 9.91582H178.456V29.2405L181.498 29.8966V31H172.432ZM190.29 8.63347H199.356V9.73688L196.374 10.4228V29.2405L199.356 29.8966V31H190.29V29.8966L193.242 29.2107V10.4526L190.29 9.73688V8.63347Z" fill="#124FA6"/>
<path d="M48.5548 43.8014C48.522 43.5245 48.3889 43.3094 48.1557 43.1564C47.9224 43.0033 47.6363 42.9267 47.2974 42.9267C47.0496 42.9267 46.8327 42.9668 46.6468 43.047C46.4628 43.1272 46.3188 43.2374 46.2149 43.3778C46.1129 43.5181 46.0619 43.6775 46.0619 43.8561C46.0619 44.0055 46.0974 44.134 46.1685 44.2415C46.2414 44.3472 46.3343 44.4356 46.4473 44.5067C46.5603 44.5759 46.6787 44.6333 46.8026 44.6789C46.9266 44.7226 47.0404 44.7581 47.1443 44.7855L47.7129 44.9386C47.8587 44.9768 48.0208 45.0297 48.1994 45.0971C48.3798 45.1645 48.552 45.2565 48.716 45.3732C48.8819 45.488 49.0185 45.6356 49.1261 45.816C49.2336 45.9964 49.2873 46.2178 49.2873 46.4802C49.2873 46.7827 49.2081 47.0561 49.0495 47.3002C48.8928 47.5444 48.6632 47.7385 48.3607 47.8825C48.06 48.0264 47.6946 48.0984 47.2646 48.0984C46.8637 48.0984 46.5165 48.0337 46.2231 47.9043C45.9316 47.7749 45.702 47.5945 45.5343 47.3631C45.3685 47.1317 45.2746 46.8629 45.2528 46.5567H45.9525C45.9708 46.7681 46.0418 46.9431 46.1657 47.0816C46.2915 47.2182 46.45 47.3203 46.6414 47.3877C46.8345 47.4533 47.0423 47.4861 47.2646 47.4861C47.5234 47.4861 47.7557 47.4442 47.9616 47.3604C48.1675 47.2747 48.3306 47.1563 48.4509 47.005C48.5712 46.852 48.6313 46.6734 48.6313 46.4693C48.6313 46.2834 48.5794 46.1322 48.4755 46.0155C48.3716 45.8989 48.235 45.8041 48.0655 45.7312C47.896 45.6584 47.7129 45.5946 47.5161 45.5399L46.8272 45.3431C46.3899 45.2174 46.0437 45.0379 45.7885 44.8046C45.5334 44.5714 45.4059 44.2661 45.4059 43.8889C45.4059 43.5755 45.4906 43.3021 45.6601 43.0689C45.8314 42.8338 46.061 42.6516 46.3489 42.5222C46.6386 42.391 46.9621 42.3254 47.3193 42.3254C47.6801 42.3254 48.0008 42.3901 48.2814 42.5195C48.5621 42.647 48.7844 42.822 48.9484 43.0443C49.1142 43.2666 49.2017 43.519 49.2108 43.8014H48.5548ZM51.9978 48.0875C51.5932 48.0875 51.2443 47.9982 50.9509 47.8196C50.6593 47.6392 50.4343 47.3877 50.2757 47.0652C50.119 46.7408 50.0406 46.3636 50.0406 45.9335C50.0406 45.5035 50.119 45.1244 50.2757 44.7964C50.4343 44.4666 50.6547 44.2096 50.9372 44.0256C51.2215 43.8397 51.5531 43.7468 51.9322 43.7468C52.1508 43.7468 52.3668 43.7832 52.58 43.8561C52.7932 43.929 52.9873 44.0475 53.1622 44.2115C53.3372 44.3736 53.4766 44.5887 53.5804 44.8565C53.6843 45.1244 53.7362 45.4543 53.7362 45.8461V46.1194H50.4999V45.5618H53.0802C53.0802 45.3249 53.0328 45.1135 52.9381 44.9276C52.8451 44.7417 52.7121 44.5951 52.539 44.4875C52.3677 44.38 52.1654 44.3263 51.9322 44.3263C51.6752 44.3263 51.4529 44.39 51.2652 44.5176C51.0793 44.6433 50.9363 44.8073 50.8361 45.0096C50.7358 45.2119 50.6857 45.4287 50.6857 45.6602V46.0319C50.6857 46.349 50.7404 46.6178 50.8497 46.8383C50.9609 47.057 51.1149 47.2237 51.3117 47.3385C51.5085 47.4515 51.7372 47.508 51.9978 47.508C52.1673 47.508 52.3203 47.4843 52.457 47.4369C52.5955 47.3877 52.7148 47.3148 52.8151 47.2182C52.9153 47.1198 52.9927 46.9977 53.0474 46.852L53.6706 47.0269C53.605 47.2383 53.4948 47.4242 53.3399 47.5845C53.185 47.7431 52.9937 47.867 52.7659 47.9563C52.5381 48.0437 52.2821 48.0875 51.9978 48.0875ZM56.3462 48.0875C55.9526 48.0875 55.6137 47.9945 55.3294 47.8087C55.0451 47.6228 54.8264 47.3668 54.6734 47.0406C54.5203 46.7144 54.4438 46.3417 54.4438 45.9226C54.4438 45.4962 54.5221 45.1199 54.6788 44.7937C54.8374 44.4657 55.0579 44.2096 55.3403 44.0256C55.6246 43.8397 55.9563 43.7468 56.3353 43.7468C56.6305 43.7468 56.8966 43.8014 57.1335 43.9108C57.3704 44.0201 57.5644 44.1732 57.7157 44.37C57.8669 44.5668 57.9608 44.7964 57.9972 45.0588H57.3521C57.3029 44.8675 57.1936 44.698 57.0241 44.5504C56.8565 44.401 56.6305 44.3263 56.3462 44.3263C56.0948 44.3263 55.8743 44.3919 55.6847 44.5231C55.497 44.6525 55.3504 44.8356 55.2447 45.0725C55.1408 45.3076 55.0889 45.5836 55.0889 45.9007C55.0889 46.2251 55.1399 46.5075 55.2419 46.7481C55.3458 46.9886 55.4916 47.1754 55.6793 47.3084C55.8688 47.4415 56.0911 47.508 56.3462 47.508C56.5139 47.508 56.666 47.4788 56.8027 47.4205C56.9394 47.3622 57.0551 47.2784 57.1499 47.169C57.2446 47.0597 57.312 46.9285 57.3521 46.7754H57.9972C57.9608 47.0233 57.8706 47.2465 57.7266 47.4451C57.5845 47.6419 57.3959 47.7986 57.1608 47.9153C56.9275 48.0301 56.656 48.0875 56.3462 48.0875ZM61.5093 46.2834V43.8014H62.1543V48H61.5093V47.2893H61.4655C61.3671 47.5025 61.214 47.6838 61.0063 47.8333C60.7986 47.9809 60.5362 48.0547 60.2191 48.0547C59.9567 48.0547 59.7234 47.9973 59.5193 47.8825C59.3152 47.7658 59.1549 47.5909 59.0382 47.3576C58.9216 47.1226 58.8633 46.8264 58.8633 46.4693V43.8014H59.5084V46.4255C59.5084 46.7317 59.594 46.9759 59.7653 47.1581C59.9384 47.3403 60.1589 47.4314 60.4268 47.4314C60.5872 47.4314 60.7503 47.3904 60.9161 47.3084C61.0838 47.2264 61.2241 47.1007 61.3371 46.9312C61.4519 46.7618 61.5093 46.5458 61.5093 46.2834ZM63.2589 48V43.8014H63.8821V44.4356H63.9259C64.0024 44.2279 64.1409 44.0593 64.3413 43.9299C64.5418 43.8005 64.7678 43.7358 65.0192 43.7358C65.0666 43.7358 65.1258 43.7368 65.1969 43.7386C65.268 43.7404 65.3217 43.7431 65.3582 43.7468V44.4028C65.3363 44.3973 65.2862 44.3891 65.2078 44.3782C65.1313 44.3654 65.0502 44.3591 64.9646 44.3591C64.7605 44.3591 64.5782 44.4019 64.4179 44.4875C64.2593 44.5714 64.1336 44.688 64.0407 44.8374C63.9495 44.985 63.904 45.1536 63.904 45.3431V48H63.2589ZM66.0459 48V43.8014H66.691V48H66.0459ZM66.3739 43.1017C66.2482 43.1017 66.1397 43.0589 66.0486 42.9732C65.9593 42.8876 65.9147 42.7846 65.9147 42.6643C65.9147 42.5441 65.9593 42.4411 66.0486 42.3555C66.1397 42.2698 66.2482 42.227 66.3739 42.227C66.4996 42.227 66.6072 42.2698 66.6964 42.3555C66.7876 42.4411 66.8331 42.5441 66.8331 42.6643C66.8331 42.7846 66.7876 42.8876 66.6964 42.9732C66.6072 43.0589 66.4996 43.1017 66.3739 43.1017ZM68.4406 45.4743V48H67.7955V43.8014H68.4188V44.4575H68.4734C68.5718 44.2443 68.7213 44.073 68.9217 43.9436C69.1222 43.8124 69.3809 43.7468 69.698 43.7468C69.9823 43.7468 70.231 43.8051 70.4442 43.9217C70.6574 44.0365 70.8233 44.2115 70.9417 44.4465C71.0602 44.6798 71.1194 44.975 71.1194 45.3322V48H70.4743V45.3759C70.4743 45.0461 70.3886 44.7891 70.2174 44.6051C70.0461 44.4192 69.811 44.3263 69.5121 44.3263C69.3062 44.3263 69.1222 44.3709 68.96 44.4602C68.7996 44.5495 68.673 44.6798 68.58 44.8511C68.4871 45.0224 68.4406 45.2301 68.4406 45.4743ZM73.9159 49.6619C73.6043 49.6619 73.3364 49.6218 73.1123 49.5417C72.8882 49.4633 72.7014 49.3594 72.552 49.23C72.4043 49.1025 72.2868 48.9658 72.1993 48.82L72.7132 48.4592C72.7715 48.5358 72.8453 48.6232 72.9346 48.7216C73.0239 48.8219 73.146 48.9084 73.3009 48.9813C73.4576 49.056 73.6626 49.0934 73.9159 49.0934C74.2549 49.0934 74.5346 49.0114 74.7551 48.8474C74.9756 48.6834 75.0858 48.4264 75.0858 48.0765V47.2237H75.0312C74.9838 47.3002 74.9164 47.395 74.8289 47.508C74.7433 47.6191 74.6193 47.7185 74.4572 47.8059C74.2968 47.8916 74.0799 47.9344 73.8066 47.9344C73.4677 47.9344 73.1633 47.8542 72.8936 47.6939C72.6258 47.5335 72.4135 47.3002 72.2567 46.9941C72.1018 46.688 72.0244 46.3162 72.0244 45.8789C72.0244 45.4488 72.1 45.0743 72.2513 44.7554C72.4025 44.4347 72.613 44.1869 72.8827 44.0119C73.1524 43.8352 73.464 43.7468 73.8175 43.7468C74.0909 43.7468 74.3077 43.7923 74.4681 43.8834C74.6303 43.9727 74.7542 44.0748 74.8398 44.1896C74.9273 44.3026 74.9947 44.3955 75.0421 44.4684H75.1077V43.8014H75.7309V48.1203C75.7309 48.4811 75.6489 48.7745 75.4849 49.0004C75.3227 49.2282 75.1041 49.395 74.8289 49.5007C74.5556 49.6082 74.2512 49.6619 73.9159 49.6619ZM73.8941 47.3549C74.1528 47.3549 74.3715 47.2957 74.5501 47.1772C74.7287 47.0588 74.8644 46.8884 74.9574 46.6661C75.0503 46.4438 75.0968 46.1777 75.0968 45.8679C75.0968 45.5654 75.0512 45.2985 74.9601 45.067C74.869 44.8356 74.7341 44.6543 74.5556 44.5231C74.377 44.3919 74.1565 44.3263 73.8941 44.3263C73.6207 44.3263 73.3929 44.3955 73.2107 44.534C73.0303 44.6725 72.8945 44.8584 72.8034 45.0916C72.7141 45.3249 72.6695 45.5836 72.6695 45.8679C72.6695 46.1595 72.715 46.4173 72.8062 46.6415C72.8991 46.8638 73.0358 47.0387 73.2162 47.1663C73.3984 47.292 73.6244 47.3549 73.8941 47.3549ZM83.5149 44.1513H82.837C82.7969 43.9563 82.7267 43.785 82.6265 43.6374C82.5281 43.4898 82.4078 43.3659 82.2657 43.2657C82.1254 43.1636 81.9696 43.0871 81.7983 43.0361C81.627 42.9851 81.4484 42.9595 81.2625 42.9595C80.9236 42.9595 80.6165 43.0452 80.3414 43.2165C80.068 43.3878 79.8503 43.6402 79.6881 43.9736C79.5277 44.3071 79.4475 44.7162 79.4475 45.201C79.4475 45.6857 79.5277 46.0948 79.6881 46.4283C79.8503 46.7618 80.068 47.0141 80.3414 47.1854C80.6165 47.3567 80.9236 47.4424 81.2625 47.4424C81.4484 47.4424 81.627 47.4169 81.7983 47.3658C81.9696 47.3148 82.1254 47.2392 82.2657 47.139C82.4078 47.0369 82.5281 46.9121 82.6265 46.7645C82.7267 46.6151 82.7969 46.4438 82.837 46.2506H83.5149C83.4639 46.5367 83.3709 46.7927 83.2361 47.0187C83.1012 47.2447 82.9336 47.4369 82.7331 47.5955C82.5327 47.7522 82.3076 47.8715 82.058 47.9535C81.8101 48.0355 81.545 48.0765 81.2625 48.0765C80.7851 48.0765 80.3605 47.9599 79.9888 47.7267C79.617 47.4934 79.3245 47.1617 79.1113 46.7317C78.8981 46.3016 78.7915 45.7914 78.7915 45.201C78.7915 44.6105 78.8981 44.1003 79.1113 43.6702C79.3245 43.2402 79.617 42.9085 79.9888 42.6753C80.3605 42.442 80.7851 42.3254 81.2625 42.3254C81.545 42.3254 81.8101 42.3664 82.058 42.4484C82.3076 42.5304 82.5327 42.6507 82.7331 42.8092C82.9336 42.9659 83.1012 43.1573 83.2361 43.3832C83.3709 43.6074 83.4639 43.8634 83.5149 44.1513ZM85.091 42.4019V48H84.4459V42.4019H85.091ZM87.9012 48.0875C87.5221 48.0875 87.1896 47.9973 86.9035 47.8169C86.6192 47.6365 86.3969 47.3841 86.2365 47.0597C86.078 46.7353 85.9987 46.3563 85.9987 45.9226C85.9987 45.4852 86.078 45.1035 86.2365 44.7773C86.3969 44.4511 86.6192 44.1978 86.9035 44.0174C87.1896 43.837 87.5221 43.7468 87.9012 43.7468C88.2802 43.7468 88.6119 43.837 88.8961 44.0174C89.1822 44.1978 89.4046 44.4511 89.5631 44.7773C89.7235 45.1035 89.8036 45.4852 89.8036 45.9226C89.8036 46.3563 89.7235 46.7353 89.5631 47.0597C89.4046 47.3841 89.1822 47.6365 88.8961 47.8169C88.6119 47.9973 88.2802 48.0875 87.9012 48.0875ZM87.9012 47.508C88.1891 47.508 88.426 47.4342 88.6119 47.2866C88.7977 47.139 88.9353 46.9449 89.0246 46.7044C89.1139 46.4638 89.1586 46.2032 89.1586 45.9226C89.1586 45.642 89.1139 45.3805 89.0246 45.1381C88.9353 44.8957 88.7977 44.6998 88.6119 44.5504C88.426 44.401 88.1891 44.3263 87.9012 44.3263C87.6133 44.3263 87.3764 44.401 87.1905 44.5504C87.0046 44.6998 86.867 44.8957 86.7777 45.1381C86.6884 45.3805 86.6438 45.642 86.6438 45.9226C86.6438 46.2032 86.6884 46.4638 86.7777 46.7044C86.867 46.9449 87.0046 47.139 87.1905 47.2866C87.3764 47.4342 87.6133 47.508 87.9012 47.508ZM93.3574 46.2834V43.8014H94.0024V48H93.3574V47.2893H93.3136C93.2152 47.5025 93.0621 47.6838 92.8544 47.8333C92.6467 47.9809 92.3843 48.0547 92.0672 48.0547C91.8048 48.0547 91.5715 47.9973 91.3674 47.8825C91.1633 47.7658 91.003 47.5909 90.8863 47.3576C90.7697 47.1226 90.7114 46.8264 90.7114 46.4693V43.8014H91.3565V46.4255C91.3565 46.7317 91.4421 46.9759 91.6134 47.1581C91.7865 47.3403 92.007 47.4314 92.2749 47.4314C92.4353 47.4314 92.5984 47.3904 92.7642 47.3084C92.9319 47.2264 93.0722 47.1007 93.1852 46.9312C93.3 46.7618 93.3574 46.5458 93.3574 46.2834ZM96.6924 48.0875C96.3425 48.0875 96.0336 47.9991 95.7658 47.8223C95.4979 47.6437 95.2883 47.3923 95.1371 47.0679C94.9858 46.7417 94.9102 46.3563 94.9102 45.9117C94.9102 45.4707 94.9858 45.088 95.1371 44.7636C95.2883 44.4392 95.4988 44.1887 95.7685 44.0119C96.0382 43.8352 96.3498 43.7468 96.7033 43.7468C96.9767 43.7468 97.1926 43.7923 97.3512 43.8834C97.5115 43.9727 97.6336 44.0748 97.7174 44.1896C97.8031 44.3026 97.8696 44.3955 97.917 44.4684H97.9716V42.4019H98.6167V48H97.9935V47.3549H97.917C97.8696 47.4314 97.8022 47.528 97.7147 47.6447C97.6272 47.7595 97.5024 47.8624 97.3402 47.9535C97.178 48.0428 96.9621 48.0875 96.6924 48.0875ZM96.7799 47.508C97.0386 47.508 97.2573 47.4406 97.4359 47.3057C97.6145 47.169 97.7502 46.9804 97.8432 46.7399C97.9361 46.4975 97.9826 46.2178 97.9826 45.9007C97.9826 45.5873 97.937 45.313 97.8459 45.078C97.7548 44.8411 97.6199 44.657 97.4414 44.5258C97.2628 44.3928 97.0423 44.3263 96.7799 44.3263C96.5065 44.3263 96.2787 44.3964 96.0965 44.5367C95.9161 44.6752 95.7803 44.8638 95.6892 45.1026C95.5999 45.3395 95.5553 45.6055 95.5553 45.9007C95.5553 46.1996 95.6008 46.4711 95.692 46.7153C95.7849 46.9576 95.9216 47.1508 96.102 47.2948C96.2842 47.4369 96.5102 47.508 96.7799 47.508ZM102.785 44.7417L102.205 44.9058C102.169 44.8092 102.115 44.7153 102.044 44.6242C101.975 44.5313 101.88 44.4547 101.76 44.3946C101.639 44.3345 101.485 44.3044 101.298 44.3044C101.041 44.3044 100.827 44.3636 100.655 44.4821C100.486 44.5987 100.401 44.7472 100.401 44.9276C100.401 45.088 100.46 45.2146 100.576 45.3076C100.693 45.4005 100.875 45.478 101.123 45.5399L101.746 45.693C102.121 45.7841 102.401 45.9235 102.585 46.1112C102.769 46.2971 102.861 46.5367 102.861 46.8301C102.861 47.0706 102.792 47.2857 102.654 47.4752C102.517 47.6647 102.326 47.8141 102.08 47.9235C101.834 48.0328 101.547 48.0875 101.221 48.0875C100.793 48.0875 100.439 47.9945 100.158 47.8087C99.8773 47.6228 99.6996 47.3513 99.6249 46.9941L100.237 46.841C100.296 47.067 100.406 47.2365 100.568 47.3494C100.732 47.4624 100.946 47.5189 101.21 47.5189C101.511 47.5189 101.75 47.4551 101.926 47.3276C102.105 47.1982 102.194 47.0433 102.194 46.8629C102.194 46.7171 102.143 46.595 102.041 46.4966C101.939 46.3964 101.783 46.3217 101.571 46.2725L100.871 46.1085C100.487 46.0173 100.204 45.8761 100.024 45.6848C99.8454 45.4916 99.7561 45.2502 99.7561 44.9604C99.7561 44.7235 99.8227 44.514 99.9557 44.3317C100.091 44.1495 100.274 44.0065 100.505 43.9026C100.738 43.7987 101.003 43.7468 101.298 43.7468C101.713 43.7468 102.039 43.8379 102.276 44.0201C102.515 44.2023 102.685 44.4429 102.785 44.7417ZM106.313 48.0437C106.179 48.0437 106.063 47.9954 105.966 47.8989C105.87 47.8023 105.821 47.6866 105.821 47.5517C105.821 47.4169 105.87 47.3012 105.966 47.2046C106.063 47.108 106.179 47.0597 106.313 47.0597C106.448 47.0597 106.564 47.108 106.661 47.2046C106.757 47.3012 106.805 47.4169 106.805 47.5517C106.805 47.641 106.783 47.723 106.737 47.7977C106.693 47.8724 106.634 47.9326 106.559 47.9781C106.487 48.0219 106.405 48.0437 106.313 48.0437ZM113.123 43.8014C113.09 43.5245 112.957 43.3094 112.724 43.1564C112.491 43.0033 112.205 42.9267 111.866 42.9267C111.618 42.9267 111.401 42.9668 111.215 43.047C111.031 43.1272 110.887 43.2374 110.783 43.3778C110.681 43.5181 110.63 43.6775 110.63 43.8561C110.63 44.0055 110.666 44.134 110.737 44.2415C110.81 44.3472 110.902 44.4356 111.015 44.5067C111.128 44.5759 111.247 44.6333 111.371 44.6789C111.495 44.7226 111.609 44.7581 111.712 44.7855L112.281 44.9386C112.427 44.9768 112.589 45.0297 112.768 45.0971C112.948 45.1645 113.12 45.2565 113.284 45.3732C113.45 45.488 113.587 45.6356 113.694 45.816C113.802 45.9964 113.855 46.2178 113.855 46.4802C113.855 46.7827 113.776 47.0561 113.618 47.3002C113.461 47.5444 113.231 47.7385 112.929 47.8825C112.628 48.0264 112.263 48.0984 111.833 48.0984C111.432 48.0984 111.085 48.0337 110.791 47.9043C110.5 47.7749 110.27 47.5945 110.102 47.3631C109.937 47.1317 109.843 46.8629 109.821 46.5567H110.521C110.539 46.7681 110.61 46.9431 110.734 47.0816C110.86 47.2182 111.018 47.3203 111.21 47.3877C111.403 47.4533 111.61 47.4861 111.833 47.4861C112.092 47.4861 112.324 47.4442 112.53 47.3604C112.736 47.2747 112.899 47.1563 113.019 47.005C113.139 46.852 113.199 46.6734 113.199 46.4693C113.199 46.2834 113.148 46.1322 113.044 46.0155C112.94 45.8989 112.803 45.8041 112.634 45.7312C112.464 45.6584 112.281 45.5946 112.084 45.5399L111.395 45.3431C110.958 45.2174 110.612 45.0379 110.357 44.8046C110.102 44.5714 109.974 44.2661 109.974 43.8889C109.974 43.5755 110.059 43.3021 110.228 43.0689C110.4 42.8338 110.629 42.6516 110.917 42.5222C111.207 42.391 111.53 42.3254 111.887 42.3254C112.248 42.3254 112.569 42.3901 112.85 42.5195C113.13 42.647 113.353 42.822 113.517 43.0443C113.682 43.2666 113.77 43.519 113.779 43.8014H113.123ZM116.041 48.0984C115.775 48.0984 115.534 48.0483 115.317 47.9481C115.1 47.846 114.928 47.6993 114.8 47.508C114.673 47.3148 114.609 47.0816 114.609 46.8082C114.609 46.5677 114.656 46.3727 114.751 46.2233C114.846 46.072 114.972 45.9536 115.131 45.8679C115.289 45.7823 115.464 45.7185 115.656 45.6766C115.849 45.6328 116.043 45.5982 116.238 45.5727C116.493 45.5399 116.7 45.5153 116.858 45.4989C117.019 45.4807 117.135 45.4506 117.208 45.4087C117.283 45.3668 117.32 45.2939 117.32 45.19V45.1682C117.32 44.8985 117.247 44.6889 117.099 44.5395C116.953 44.39 116.732 44.3153 116.435 44.3153C116.127 44.3153 115.885 44.3828 115.71 44.5176C115.535 44.6525 115.412 44.7964 115.341 44.9495L114.729 44.7308C114.838 44.4757 114.984 44.2771 115.166 44.1349C115.35 43.991 115.551 43.8907 115.768 43.8342C115.986 43.7759 116.201 43.7468 116.413 43.7468C116.548 43.7468 116.703 43.7632 116.878 43.796C117.054 43.827 117.225 43.8916 117.389 43.9901C117.555 44.0885 117.692 44.237 117.801 44.4356C117.911 44.6342 117.965 44.9003 117.965 45.2338V48H117.32V47.4314H117.288C117.244 47.5226 117.171 47.6201 117.069 47.7239C116.967 47.8278 116.831 47.9162 116.662 47.9891C116.492 48.062 116.285 48.0984 116.041 48.0984ZM116.14 47.5189C116.395 47.5189 116.61 47.4688 116.785 47.3686C116.961 47.2684 117.094 47.139 117.184 46.9804C117.275 46.8219 117.32 46.6551 117.32 46.4802V45.8898C117.293 45.9226 117.233 45.9527 117.14 45.98C117.049 46.0055 116.943 46.0283 116.823 46.0483C116.704 46.0666 116.589 46.083 116.476 46.0975C116.365 46.1103 116.274 46.1212 116.205 46.1303C116.037 46.1522 115.881 46.1877 115.735 46.2369C115.591 46.2843 115.474 46.3563 115.385 46.4529C115.298 46.5476 115.254 46.677 115.254 46.841C115.254 47.0652 115.337 47.2346 115.503 47.3494C115.67 47.4624 115.883 47.5189 116.14 47.5189ZM120.936 43.8014V44.3481H118.672V43.8014H120.936ZM119.35 48V43.222C119.35 42.9814 119.407 42.781 119.52 42.6206C119.633 42.4602 119.779 42.34 119.96 42.2598C120.14 42.1796 120.331 42.1395 120.531 42.1395C120.69 42.1395 120.819 42.1523 120.919 42.1778C121.019 42.2033 121.094 42.227 121.143 42.2489L120.957 42.8065C120.925 42.7955 120.879 42.7819 120.821 42.7655C120.764 42.7491 120.69 42.7409 120.597 42.7409C120.383 42.7409 120.229 42.7946 120.135 42.9021C120.042 43.0097 119.995 43.1673 119.995 43.375V48H119.35ZM123.35 48.0875C122.946 48.0875 122.597 47.9982 122.303 47.8196C122.012 47.6392 121.787 47.3877 121.628 47.0652C121.471 46.7408 121.393 46.3636 121.393 45.9335C121.393 45.5035 121.471 45.1244 121.628 44.7964C121.787 44.4666 122.007 44.2096 122.29 44.0256C122.574 43.8397 122.906 43.7468 123.285 43.7468C123.503 43.7468 123.719 43.7832 123.932 43.8561C124.146 43.929 124.34 44.0475 124.515 44.2115C124.69 44.3736 124.829 44.5887 124.933 44.8565C125.037 45.1244 125.089 45.4543 125.089 45.8461V46.1194H121.852V45.5618H124.433C124.433 45.3249 124.385 45.1135 124.29 44.9276C124.198 44.7417 124.064 44.5951 123.891 44.4875C123.72 44.38 123.518 44.3263 123.285 44.3263C123.028 44.3263 122.805 44.39 122.618 44.5176C122.432 44.6433 122.289 44.8073 122.188 45.0096C122.088 45.2119 122.038 45.4287 122.038 45.6602V46.0319C122.038 46.349 122.093 46.6178 122.202 46.8383C122.313 47.057 122.467 47.2237 122.664 47.3385C122.861 47.4515 123.09 47.508 123.35 47.508C123.52 47.508 123.673 47.4843 123.809 47.4369C123.948 47.3877 124.067 47.3148 124.167 47.2182C124.268 47.1198 124.345 46.9977 124.4 46.852L125.023 47.0269C124.957 47.2383 124.847 47.4242 124.692 47.5845C124.537 47.7431 124.346 47.867 124.118 47.9563C123.89 48.0437 123.634 48.0875 123.35 48.0875ZM127.688 49.6619C127.376 49.6619 127.108 49.6218 126.884 49.5417C126.66 49.4633 126.473 49.3594 126.324 49.23C126.176 49.1025 126.059 48.9658 125.971 48.82L126.485 48.4592C126.543 48.5358 126.617 48.6232 126.706 48.7216C126.796 48.8219 126.918 48.9084 127.073 48.9813C127.229 49.056 127.434 49.0934 127.688 49.0934C128.027 49.0934 128.306 49.0114 128.527 48.8474C128.747 48.6834 128.858 48.4264 128.858 48.0765V47.2237H128.803C128.756 47.3002 128.688 47.395 128.601 47.508C128.515 47.6191 128.391 47.7185 128.229 47.8059C128.069 47.8916 127.852 47.9344 127.578 47.9344C127.239 47.9344 126.935 47.8542 126.665 47.6939C126.397 47.5335 126.185 47.3002 126.028 46.9941C125.874 46.688 125.796 46.3162 125.796 45.8789C125.796 45.4488 125.872 45.0743 126.023 44.7554C126.174 44.4347 126.385 44.1869 126.654 44.0119C126.924 43.8352 127.236 43.7468 127.589 43.7468C127.863 43.7468 128.079 43.7923 128.24 43.8834C128.402 43.9727 128.526 44.0748 128.612 44.1896C128.699 44.3026 128.766 44.3955 128.814 44.4684H128.879V43.8014H129.503V48.1203C129.503 48.4811 129.421 48.7745 129.257 49.0004C129.094 49.2282 128.876 49.395 128.601 49.5007C128.327 49.6082 128.023 49.6619 127.688 49.6619ZM127.666 47.3549C127.925 47.3549 128.143 47.2957 128.322 47.1772C128.5 47.0588 128.636 46.8884 128.729 46.6661C128.822 46.4438 128.869 46.1777 128.869 45.8679C128.869 45.5654 128.823 45.2985 128.732 45.067C128.641 44.8356 128.506 44.6543 128.327 44.5231C128.149 44.3919 127.928 44.3263 127.666 44.3263C127.392 44.3263 127.165 44.3955 126.982 44.534C126.802 44.6725 126.666 44.8584 126.575 45.0916C126.486 45.3249 126.441 45.5836 126.441 45.8679C126.441 46.1595 126.487 46.4173 126.578 46.6415C126.671 46.8638 126.807 47.0387 126.988 47.1663C127.17 47.292 127.396 47.3549 127.666 47.3549ZM133.253 46.2834V43.8014H133.898V48H133.253V47.2893H133.209C133.11 47.5025 132.957 47.6838 132.75 47.8333C132.542 47.9809 132.279 48.0547 131.962 48.0547C131.7 48.0547 131.467 47.9973 131.263 47.8825C131.058 47.7658 130.898 47.5909 130.781 47.3576C130.665 47.1226 130.607 46.8264 130.607 46.4693V43.8014H131.252V46.4255C131.252 46.7317 131.337 46.9759 131.509 47.1581C131.682 47.3403 131.902 47.4314 132.17 47.4314C132.33 47.4314 132.494 47.3904 132.659 47.3084C132.827 47.2264 132.967 47.1007 133.08 46.9312C133.195 46.7618 133.253 46.5458 133.253 46.2834ZM136.238 48.0984C135.972 48.0984 135.73 48.0483 135.513 47.9481C135.296 47.846 135.124 47.6993 134.997 47.508C134.869 47.3148 134.805 47.0816 134.805 46.8082C134.805 46.5677 134.853 46.3727 134.947 46.2233C135.042 46.072 135.169 45.9536 135.327 45.8679C135.486 45.7823 135.661 45.7185 135.852 45.6766C136.045 45.6328 136.239 45.5982 136.434 45.5727C136.69 45.5399 136.896 45.5153 137.055 45.4989C137.215 45.4807 137.332 45.4506 137.405 45.4087C137.48 45.3668 137.517 45.2939 137.517 45.19V45.1682C137.517 44.8985 137.443 44.6889 137.296 44.5395C137.15 44.39 136.928 44.3153 136.631 44.3153C136.323 44.3153 136.082 44.3828 135.907 44.5176C135.732 44.6525 135.609 44.7964 135.538 44.9495L134.926 44.7308C135.035 44.4757 135.181 44.2771 135.363 44.1349C135.547 43.991 135.747 43.8907 135.964 43.8342C136.183 43.7759 136.398 43.7468 136.609 43.7468C136.744 43.7468 136.899 43.7632 137.074 43.796C137.251 43.827 137.421 43.8916 137.585 43.9901C137.751 44.0885 137.889 44.237 137.998 44.4356C138.107 44.6342 138.162 44.9003 138.162 45.2338V48H137.517V47.4314H137.484C137.44 47.5226 137.367 47.6201 137.265 47.7239C137.163 47.8278 137.028 47.9162 136.858 47.9891C136.689 48.062 136.482 48.0984 136.238 48.0984ZM136.336 47.5189C136.591 47.5189 136.806 47.4688 136.981 47.3686C137.158 47.2684 137.291 47.139 137.38 46.9804C137.471 46.8219 137.517 46.6551 137.517 46.4802V45.8898C137.49 45.9226 137.429 45.9527 137.337 45.98C137.245 46.0055 137.14 46.0283 137.019 46.0483C136.901 46.0666 136.785 46.083 136.672 46.0975C136.561 46.1103 136.471 46.1212 136.402 46.1303C136.234 46.1522 136.077 46.1877 135.932 46.2369C135.788 46.2843 135.671 46.3563 135.582 46.4529C135.494 46.5476 135.45 46.677 135.45 46.841C135.45 47.0652 135.533 47.2346 135.699 47.3494C135.867 47.4624 136.079 47.5189 136.336 47.5189ZM139.262 48V43.8014H139.886V44.4356H139.929C140.006 44.2279 140.144 44.0593 140.345 43.9299C140.545 43.8005 140.771 43.7358 141.023 43.7358C141.07 43.7358 141.129 43.7368 141.2 43.7386C141.272 43.7404 141.325 43.7431 141.362 43.7468V44.4028C141.34 44.3973 141.29 44.3891 141.211 44.3782C141.135 44.3654 141.054 44.3591 140.968 44.3591C140.764 44.3591 140.582 44.4019 140.421 44.4875C140.263 44.5714 140.137 44.688 140.044 44.8374C139.953 44.985 139.908 45.1536 139.908 45.3431V48H139.262ZM143.507 48.0875C143.157 48.0875 142.848 47.9991 142.58 47.8223C142.313 47.6437 142.103 47.3923 141.952 47.0679C141.8 46.7417 141.725 46.3563 141.725 45.9117C141.725 45.4707 141.8 45.088 141.952 44.7636C142.103 44.4392 142.313 44.1887 142.583 44.0119C142.853 43.8352 143.164 43.7468 143.518 43.7468C143.791 43.7468 144.007 43.7923 144.166 43.8834C144.326 43.9727 144.448 44.0748 144.532 44.1896C144.618 44.3026 144.684 44.3955 144.732 44.4684H144.786V42.4019H145.431V48H144.808V47.3549H144.732C144.684 47.4314 144.617 47.528 144.529 47.6447C144.442 47.7595 144.317 47.8624 144.155 47.9535C143.993 48.0428 143.777 48.0875 143.507 48.0875ZM143.595 47.508C143.853 47.508 144.072 47.4406 144.251 47.3057C144.429 47.169 144.565 46.9804 144.658 46.7399C144.751 46.4975 144.797 46.2178 144.797 45.9007C144.797 45.5873 144.752 45.313 144.661 45.078C144.569 44.8411 144.435 44.657 144.256 44.5258C144.077 44.3928 143.857 44.3263 143.595 44.3263C143.321 44.3263 143.093 44.3964 142.911 44.5367C142.731 44.6752 142.595 44.8638 142.504 45.1026C142.415 45.3395 142.37 45.6055 142.37 45.9007C142.37 46.1996 142.415 46.4711 142.507 46.7153C142.6 46.9576 142.736 47.1508 142.917 47.2948C143.099 47.4369 143.325 47.508 143.595 47.508ZM146.625 48V43.8014H147.271V48H146.625ZM146.953 43.1017C146.828 43.1017 146.719 43.0589 146.628 42.9732C146.539 42.8876 146.494 42.7846 146.494 42.6643C146.494 42.5441 146.539 42.4411 146.628 42.3555C146.719 42.2698 146.828 42.227 146.953 42.227C147.079 42.227 147.187 42.2698 147.276 42.3555C147.367 42.4411 147.413 42.5441 147.413 42.6643C147.413 42.7846 147.367 42.8876 147.276 42.9732C147.187 43.0589 147.079 43.1017 146.953 43.1017ZM149.02 45.4743V48H148.375V43.8014H148.998V44.4575H149.053C149.151 44.2443 149.301 44.073 149.501 43.9436C149.702 43.8124 149.96 43.7468 150.278 43.7468C150.562 43.7468 150.811 43.8051 151.024 43.9217C151.237 44.0365 151.403 44.2115 151.521 44.4465C151.64 44.6798 151.699 44.975 151.699 45.3322V48H151.054V45.3759C151.054 45.0461 150.968 44.7891 150.797 44.6051C150.626 44.4192 150.391 44.3263 150.092 44.3263C149.886 44.3263 149.702 44.3709 149.54 44.4602C149.379 44.5495 149.253 44.6798 149.16 44.8511C149.067 45.0224 149.02 45.2301 149.02 45.4743ZM154.496 49.6619C154.184 49.6619 153.916 49.6218 153.692 49.5417C153.468 49.4633 153.281 49.3594 153.132 49.23C152.984 49.1025 152.866 48.9658 152.779 48.82L153.293 48.4592C153.351 48.5358 153.425 48.6232 153.514 48.7216C153.603 48.8219 153.726 48.9084 153.88 48.9813C154.037 49.056 154.242 49.0934 154.496 49.0934C154.834 49.0934 155.114 49.0114 155.335 48.8474C155.555 48.6834 155.665 48.4264 155.665 48.0765V47.2237H155.611C155.563 47.3002 155.496 47.395 155.408 47.508C155.323 47.6191 155.199 47.7185 155.037 47.8059C154.876 47.8916 154.66 47.9344 154.386 47.9344C154.047 47.9344 153.743 47.8542 153.473 47.6939C153.205 47.5335 152.993 47.3002 152.836 46.9941C152.681 46.688 152.604 46.3162 152.604 45.8789C152.604 45.4488 152.68 45.0743 152.831 44.7554C152.982 44.4347 153.193 44.1869 153.462 44.0119C153.732 43.8352 154.044 43.7468 154.397 43.7468C154.67 43.7468 154.887 43.7923 155.048 43.8834C155.21 43.9727 155.334 44.0748 155.419 44.1896C155.507 44.3026 155.574 44.3955 155.622 44.4684H155.687V43.8014H156.311V48.1203C156.311 48.4811 156.229 48.7745 156.064 49.0004C155.902 49.2282 155.684 49.395 155.408 49.5007C155.135 49.6082 154.831 49.6619 154.496 49.6619ZM154.474 47.3549C154.732 47.3549 154.951 47.2957 155.13 47.1772C155.308 47.0588 155.444 46.8884 155.537 46.6661C155.63 46.4438 155.676 46.1777 155.676 45.8679C155.676 45.5654 155.631 45.2985 155.54 45.067C155.449 44.8356 155.314 44.6543 155.135 44.5231C154.957 44.3919 154.736 44.3263 154.474 44.3263C154.2 44.3263 153.973 44.3955 153.79 44.534C153.61 44.6725 153.474 44.8584 153.383 45.0916C153.294 45.3249 153.249 45.5836 153.249 45.8679C153.249 46.1595 153.295 46.4173 153.386 46.6415C153.479 46.8638 153.615 47.0387 153.796 47.1663C153.978 47.292 154.204 47.3549 154.474 47.3549ZM164.094 44.1513H163.417C163.376 43.9563 163.306 43.785 163.206 43.6374C163.108 43.4898 162.987 43.3659 162.845 43.2657C162.705 43.1636 162.549 43.0871 162.378 43.0361C162.207 42.9851 162.028 42.9595 161.842 42.9595C161.503 42.9595 161.196 43.0452 160.921 43.2165C160.648 43.3878 160.43 43.6402 160.268 43.9736C160.107 44.3071 160.027 44.7162 160.027 45.201C160.027 45.6857 160.107 46.0948 160.268 46.4283C160.43 46.7618 160.648 47.0141 160.921 47.1854C161.196 47.3567 161.503 47.4424 161.842 47.4424C162.028 47.4424 162.207 47.4169 162.378 47.3658C162.549 47.3148 162.705 47.2392 162.845 47.139C162.987 47.0369 163.108 46.9121 163.206 46.7645C163.306 46.6151 163.376 46.4438 163.417 46.2506H164.094C164.043 46.5367 163.95 46.7927 163.816 47.0187C163.681 47.2447 163.513 47.4369 163.313 47.5955C163.112 47.7522 162.887 47.8715 162.638 47.9535C162.39 48.0355 162.125 48.0765 161.842 48.0765C161.365 48.0765 160.94 47.9599 160.568 47.7267C160.197 47.4934 159.904 47.1617 159.691 46.7317C159.478 46.3016 159.371 45.7914 159.371 45.201C159.371 44.6105 159.478 44.1003 159.691 43.6702C159.904 43.2402 160.197 42.9085 160.568 42.6753C160.94 42.442 161.365 42.3254 161.842 42.3254C162.125 42.3254 162.39 42.3664 162.638 42.4484C162.887 42.5304 163.112 42.6507 163.313 42.8092C163.513 42.9659 163.681 43.1573 163.816 43.3832C163.95 43.6074 164.043 43.8634 164.094 44.1513ZM165.441 49.5745C165.332 49.5745 165.234 49.5653 165.148 49.5471C165.063 49.5307 165.004 49.5143 164.971 49.4979L165.135 48.9294C165.291 48.9695 165.43 48.984 165.55 48.9731C165.671 48.9622 165.777 48.9084 165.87 48.8118C165.965 48.7171 166.051 48.5631 166.13 48.3499L166.25 48.0219L164.697 43.8014H165.397L166.556 47.1472H166.6L167.759 43.8014H168.459L166.676 48.6123C166.596 48.8291 166.497 49.0086 166.378 49.1508C166.26 49.2947 166.122 49.4013 165.966 49.4706C165.811 49.5398 165.636 49.5745 165.441 49.5745ZM169.321 48V42.4019H169.966V44.4684H170.02C170.068 44.3955 170.133 44.3026 170.217 44.1896C170.303 44.0748 170.425 43.9727 170.583 43.8834C170.744 43.7923 170.961 43.7468 171.234 43.7468C171.588 43.7468 171.899 43.8352 172.169 44.0119C172.439 44.1887 172.649 44.4392 172.8 44.7636C172.952 45.088 173.027 45.4707 173.027 45.9117C173.027 46.3563 172.952 46.7417 172.8 47.0679C172.649 47.3923 172.439 47.6437 172.172 47.8223C171.904 47.9991 171.595 48.0875 171.245 48.0875C170.975 48.0875 170.759 48.0428 170.597 47.9535C170.435 47.8624 170.31 47.7595 170.223 47.6447C170.135 47.528 170.068 47.4314 170.02 47.3549H169.944V48H169.321ZM169.955 45.9007C169.955 46.2178 170.001 46.4975 170.094 46.7399C170.187 46.9804 170.323 47.169 170.501 47.3057C170.68 47.4406 170.899 47.508 171.157 47.508C171.427 47.508 171.652 47.4369 171.833 47.2948C172.015 47.1508 172.152 46.9576 172.243 46.7153C172.336 46.4711 172.382 46.1996 172.382 45.9007C172.382 45.6055 172.336 45.3395 172.245 45.1026C172.156 44.8638 172.02 44.6752 171.838 44.5367C171.658 44.3964 171.431 44.3263 171.157 44.3263C170.895 44.3263 170.675 44.3928 170.496 44.5258C170.317 44.657 170.183 44.8411 170.091 45.078C170 45.313 169.955 45.5873 169.955 45.9007ZM175.697 48.0875C175.293 48.0875 174.944 47.9982 174.65 47.8196C174.359 47.6392 174.134 47.3877 173.975 47.0652C173.818 46.7408 173.74 46.3636 173.74 45.9335C173.74 45.5035 173.818 45.1244 173.975 44.7964C174.134 44.4666 174.354 44.2096 174.637 44.0256C174.921 43.8397 175.253 43.7468 175.632 43.7468C175.85 43.7468 176.066 43.7832 176.279 43.8561C176.493 43.929 176.687 44.0475 176.862 44.2115C177.037 44.3736 177.176 44.5887 177.28 44.8565C177.384 45.1244 177.436 45.4543 177.436 45.8461V46.1194H174.199V45.5618H176.78C176.78 45.3249 176.732 45.1135 176.638 44.9276C176.545 44.7417 176.412 44.5951 176.238 44.4875C176.067 44.38 175.865 44.3263 175.632 44.3263C175.375 44.3263 175.152 44.39 174.965 44.5176C174.779 44.6433 174.636 44.8073 174.536 45.0096C174.435 45.2119 174.385 45.4287 174.385 45.6602V46.0319C174.385 46.349 174.44 46.6178 174.549 46.8383C174.66 47.057 174.814 47.2237 175.011 47.3385C175.208 47.4515 175.437 47.508 175.697 47.508C175.867 47.508 176.02 47.4843 176.156 47.4369C176.295 47.3877 176.414 47.3148 176.515 47.2182C176.615 47.1198 176.692 46.9977 176.747 46.852L177.37 47.0269C177.305 47.2383 177.194 47.4242 177.039 47.5845C176.884 47.7431 176.693 47.867 176.465 47.9563C176.238 48.0437 175.982 48.0875 175.697 48.0875ZM178.34 48V43.8014H178.963V44.4356H179.007C179.084 44.2279 179.222 44.0593 179.422 43.9299C179.623 43.8005 179.849 43.7358 180.1 43.7358C180.148 43.7358 180.207 43.7368 180.278 43.7386C180.349 43.7404 180.403 43.7431 180.439 43.7468V44.4028C180.417 44.3973 180.367 44.3891 180.289 44.3782C180.212 44.3654 180.131 44.3591 180.046 44.3591C179.842 44.3591 179.659 44.4019 179.499 44.4875C179.34 44.5714 179.215 44.688 179.122 44.8374C179.031 44.985 178.985 45.1536 178.985 45.3431V48H178.34ZM184.101 44.7417L183.522 44.9058C183.485 44.8092 183.431 44.7153 183.36 44.6242C183.291 44.5313 183.196 44.4547 183.076 44.3946C182.956 44.3345 182.802 44.3044 182.614 44.3044C182.357 44.3044 182.143 44.3636 181.972 44.4821C181.802 44.5987 181.717 44.7472 181.717 44.9276C181.717 45.088 181.776 45.2146 181.892 45.3076C182.009 45.4005 182.191 45.478 182.439 45.5399L183.062 45.693C183.438 45.7841 183.717 45.9235 183.901 46.1112C184.086 46.2971 184.178 46.5367 184.178 46.8301C184.178 47.0706 184.108 47.2857 183.97 47.4752C183.833 47.6647 183.642 47.8141 183.396 47.9235C183.15 48.0328 182.864 48.0875 182.537 48.0875C182.109 48.0875 181.755 47.9945 181.474 47.8087C181.194 47.6228 181.016 47.3513 180.941 46.9941L181.553 46.841C181.612 47.067 181.722 47.2365 181.884 47.3494C182.048 47.4624 182.262 47.5189 182.527 47.5189C182.827 47.5189 183.066 47.4551 183.243 47.3276C183.421 47.1982 183.511 47.0433 183.511 46.8629C183.511 46.7171 183.46 46.595 183.358 46.4966C183.255 46.3964 183.099 46.3217 182.887 46.2725L182.188 46.1085C181.803 46.0173 181.521 45.8761 181.34 45.6848C181.162 45.4916 181.072 45.2502 181.072 44.9604C181.072 44.7235 181.139 44.514 181.272 44.3317C181.407 44.1495 181.59 44.0065 181.821 43.9026C182.055 43.7987 182.319 43.7468 182.614 43.7468C183.03 43.7468 183.356 43.8379 183.593 44.0201C183.831 44.2023 184.001 44.4429 184.101 44.7417ZM185.072 49.5745V43.8014H185.695V44.4684H185.771C185.819 44.3955 185.884 44.3026 185.968 44.1896C186.054 44.0748 186.176 43.9727 186.334 43.8834C186.495 43.7923 186.712 43.7468 186.985 43.7468C187.339 43.7468 187.65 43.8352 187.92 44.0119C188.19 44.1887 188.4 44.4392 188.551 44.7636C188.703 45.088 188.778 45.4707 188.778 45.9117C188.778 46.3563 188.703 46.7417 188.551 47.0679C188.4 47.3923 188.19 47.6437 187.923 47.8223C187.655 47.9991 187.346 48.0875 186.996 48.0875C186.726 48.0875 186.51 48.0428 186.348 47.9535C186.186 47.8624 186.061 47.7595 185.974 47.6447C185.886 47.528 185.819 47.4314 185.771 47.3549H185.717V49.5745H185.072ZM185.706 45.9007C185.706 46.2178 185.752 46.4975 185.845 46.7399C185.938 46.9804 186.074 47.169 186.252 47.3057C186.431 47.4406 186.65 47.508 186.909 47.508C187.178 47.508 187.403 47.4369 187.584 47.2948C187.766 47.1508 187.903 46.9576 187.994 46.7153C188.087 46.4711 188.133 46.1996 188.133 45.9007C188.133 45.6055 188.088 45.3395 187.996 45.1026C187.907 44.8638 187.771 44.6752 187.589 44.5367C187.409 44.3964 187.182 44.3263 186.909 44.3263C186.646 44.3263 186.426 44.3928 186.247 44.5258C186.068 44.657 185.934 44.8411 185.842 45.078C185.751 45.313 185.706 45.5873 185.706 45.9007ZM190.921 48.0984C190.655 48.0984 190.413 48.0483 190.196 47.9481C189.98 47.846 189.807 47.6993 189.68 47.508C189.552 47.3148 189.488 47.0816 189.488 46.8082C189.488 46.5677 189.536 46.3727 189.631 46.2233C189.725 46.072 189.852 45.9536 190.011 45.8679C190.169 45.7823 190.344 45.7185 190.535 45.6766C190.729 45.6328 190.923 45.5982 191.118 45.5727C191.373 45.5399 191.58 45.5153 191.738 45.4989C191.898 45.4807 192.015 45.4506 192.088 45.4087C192.163 45.3668 192.2 45.2939 192.2 45.19V45.1682C192.2 44.8985 192.126 44.6889 191.979 44.5395C191.833 44.39 191.611 44.3153 191.314 44.3153C191.006 44.3153 190.765 44.3828 190.59 44.5176C190.415 44.6525 190.292 44.7964 190.221 44.9495L189.609 44.7308C189.718 44.4757 189.864 44.2771 190.046 44.1349C190.23 43.991 190.431 43.8907 190.647 43.8342C190.866 43.7759 191.081 43.7468 191.293 43.7468C191.427 43.7468 191.582 43.7632 191.757 43.796C191.934 43.827 192.104 43.8916 192.268 43.9901C192.434 44.0885 192.572 44.237 192.681 44.4356C192.79 44.6342 192.845 44.9003 192.845 45.2338V48H192.2V47.4314H192.167C192.123 47.5226 192.051 47.6201 191.949 47.7239C191.846 47.8278 191.711 47.9162 191.541 47.9891C191.372 48.062 191.165 48.0984 190.921 48.0984ZM191.019 47.5189C191.274 47.5189 191.489 47.4688 191.664 47.3686C191.841 47.2684 191.974 47.139 192.063 46.9804C192.154 46.8219 192.2 46.6551 192.2 46.4802V45.8898C192.173 45.9226 192.113 45.9527 192.02 45.98C191.928 46.0055 191.823 46.0283 191.703 46.0483C191.584 46.0666 191.468 46.083 191.355 46.0975C191.244 46.1103 191.154 46.1212 191.085 46.1303C190.917 46.1522 190.76 46.1877 190.615 46.2369C190.471 46.2843 190.354 46.3563 190.265 46.4529C190.177 46.5476 190.134 46.677 190.134 46.841C190.134 47.0652 190.216 47.2346 190.382 47.3494C190.55 47.4624 190.762 47.5189 191.019 47.5189ZM195.651 48.0875C195.258 48.0875 194.919 47.9945 194.634 47.8087C194.35 47.6228 194.131 47.3668 193.978 47.0406C193.825 46.7144 193.749 46.3417 193.749 45.9226C193.749 45.4962 193.827 45.1199 193.984 44.7937C194.142 44.4657 194.363 44.2096 194.645 44.0256C194.93 43.8397 195.261 43.7468 195.64 43.7468C195.935 43.7468 196.202 43.8014 196.438 43.9108C196.675 44.0201 196.869 44.1732 197.021 44.37C197.172 44.5668 197.266 44.7964 197.302 45.0588H196.657C196.608 44.8675 196.499 44.698 196.329 44.5504C196.161 44.401 195.935 44.3263 195.651 44.3263C195.4 44.3263 195.179 44.3919 194.99 44.5231C194.802 44.6525 194.655 44.8356 194.55 45.0725C194.446 45.3076 194.394 45.5836 194.394 45.9007C194.394 46.2251 194.445 46.5075 194.547 46.7481C194.651 46.9886 194.797 47.1754 194.984 47.3084C195.174 47.4415 195.396 47.508 195.651 47.508C195.819 47.508 195.971 47.4788 196.108 47.4205C196.244 47.3622 196.36 47.2784 196.455 47.169C196.55 47.0597 196.617 46.9285 196.657 46.7754H197.302C197.266 47.0233 197.176 47.2465 197.032 47.4451C196.889 47.6419 196.701 47.7986 196.466 47.9153C196.233 48.0301 195.961 48.0875 195.651 48.0875ZM199.929 48.0875C199.524 48.0875 199.175 47.9982 198.882 47.8196C198.59 47.6392 198.365 47.3877 198.207 47.0652C198.05 46.7408 197.971 46.3636 197.971 45.9335C197.971 45.5035 198.05 45.1244 198.207 44.7964C198.365 44.4666 198.586 44.2096 198.868 44.0256C199.152 43.8397 199.484 43.7468 199.863 43.7468C200.082 43.7468 200.298 43.7832 200.511 43.8561C200.724 43.929 200.918 44.0475 201.093 44.2115C201.268 44.3736 201.407 44.5887 201.511 44.8565C201.615 45.1244 201.667 45.4543 201.667 45.8461V46.1194H198.431V45.5618H201.011C201.011 45.3249 200.964 45.1135 200.869 44.9276C200.776 44.7417 200.643 44.5951 200.47 44.4875C200.299 44.38 200.096 44.3263 199.863 44.3263C199.606 44.3263 199.384 44.39 199.196 44.5176C199.01 44.6433 198.867 44.8073 198.767 45.0096C198.667 45.2119 198.617 45.4287 198.617 45.6602V46.0319C198.617 46.349 198.671 46.6178 198.781 46.8383C198.892 47.057 199.046 47.2237 199.242 47.3385C199.439 47.4515 199.668 47.508 199.929 47.508C200.098 47.508 200.251 47.4843 200.388 47.4369C200.526 47.3877 200.646 47.3148 200.746 47.2182C200.846 47.1198 200.924 46.9977 200.978 46.852L201.601 47.0269C201.536 47.2383 201.426 47.4242 201.271 47.5845C201.116 47.7431 200.924 47.867 200.697 47.9563C200.469 48.0437 200.213 48.0875 199.929 48.0875Z" fill="#124FA6"/>
</g>
<defs>
<clipPath id="clip0_3058_1777">
<rect width="202.816" height="51.1726" fill="white"/>
</clipPath>
</defs>
</svg>
